<?xml version="1.0" standalone="no"?><!DOCTYPE svg PUBLIC "-//W3C//DTD SVG 1.1//EN" "http://www.w3.org/Graphics/SVG/1.1/DTD/svg11.dtd"><svg t="1582355169473" class="icon" viewBox="0 0 1024 1024" version="1.1" xmlns="http://www.w3.org/2000/svg" p-id="5877" xmlns:xlink="http://www.w3.org/1999/xlink" width="200" height="200"><defs><style type="text/css"></style></defs><path d="M941.056 833.536h-227.328l3.584-3.584 75.264-115.712c7.68-9.728 11.264-21.504 10.752-33.28V283.136c-0.512-43.52-69.12-74.24-130.048-74.24-51.712 0-129.536 29.696-129.536 74.24V680.96c0 11.776 3.584 23.552 10.752 32.768l73.728 112.64 3.072 3.072c1.024 1.536 2.048 2.56 3.584 3.584H385.536c4.096-3.072 8.192-6.144 11.264-10.24l0.512-0.512 0.512-0.512 84.992-131.584c7.68-10.24 11.776-22.528 11.264-34.816V198.656c0-45.568-75.776-79.36-143.36-79.36-57.856 0-143.36 33.28-143.36 79.36V655.36c0 12.288 4.096 24.576 11.264 34.816l84.992 129.536 1.536 2.048 0.512 0.512 0.512 0.512c3.072 4.096 7.168 7.168 10.752 10.24H82.944c-19.968 0-35.84 15.872-35.84 35.84s15.872 35.84 35.84 35.84h858.112c19.968 0 35.84-15.872 35.84-35.84s-15.872-35.328-35.84-35.328zM672.768 283.136h4.608c17.92 0 35.328 4.608 50.688 14.336v72.704h-110.592l-0.512-71.168c17.408-10.24 35.84-15.872 55.808-15.872z m-54.272 393.728l-1.024-235.008h110.592v235.008l-55.296 83.456-54.272-83.456z m-337.92-464.384c20.992-12.8 45.056-19.968 70.144-20.48h5.12c23.04 0 45.056 6.656 64 18.944v88.064H280.576V212.48z m139.264 158.72v282.624l-69.632 104.96L281.6 653.312l-0.512-282.624H419.84z" p-id="5878"></path></svg>