<?xml version="1.0" standalone="no"?><!DOCTYPE svg PUBLIC "-//W3C//DTD SVG 1.1//EN" "http://www.w3.org/Graphics/SVG/1.1/DTD/svg11.dtd"><svg t="1582355175736" class="icon" viewBox="0 0 1024 1024" version="1.1" xmlns="http://www.w3.org/2000/svg" p-id="5996" xmlns:xlink="http://www.w3.org/1999/xlink" width="200" height="200"><defs><style type="text/css"></style></defs><path d="M238.592 736.768L164.352 808.96h170.496l20.992-33.792-90.624-92.16 108.032-35.84L337.92 475.136l107.52 65.536 71.168-170.496 27.648 219.648 95.232-65.024-7.168 126.464 112.64 7.168-95.744 124.416 41.472 26.624h156.672l-87.552-59.392 141.824-170.496c7.168-12.8 0-38.4-14.848-35.84l-161.792 15.36v-174.08c0-17.408-14.848-28.16-27.648-17.408l-99.328 81.408-47.104-306.176c-2.56-20.48-25.088-23.04-32.256-5.12L418.304 413.184 263.68 277.504c-14.848-10.24-29.696 5.12-27.648 23.04l47.104 265.216-129.536 35.84c-14.848 2.56-17.408 25.6-7.168 35.84l92.16 99.328zM934.912 862.208H89.088c-17.92 0-32.768 15.872-32.768 35.84s14.336 35.84 32.768 35.84h846.336c17.92 0 32.768-15.872 32.768-35.84-0.512-19.456-15.36-35.84-33.28-35.84z" p-id="5997"></path></svg>