<?xml version="1.0" standalone="no"?><!DOCTYPE svg PUBLIC "-//W3C//DTD SVG 1.1//EN" "http://www.w3.org/Graphics/SVG/1.1/DTD/svg11.dtd"><svg t="1585900134783" class="icon" viewBox="0 0 1024 1024" version="1.1" xmlns="http://www.w3.org/2000/svg" p-id="5812" xmlns:xlink="http://www.w3.org/1999/xlink" width="200" height="200"><defs><style type="text/css"></style></defs><path d="M694.784 428.032h-99.328l3.584-165.376c1.536-14.336-7.68-28.16-21.504-32.768-13.824-4.608-28.672 0-37.888 11.264l-212.48 292.352c-7.168 7.168-11.264 17.408-9.728 27.648 2.048 17.92 18.432 30.72 36.864 29.184H455.68l-29.696 154.112c-3.072 14.336 4.096 29.184 17.92 36.352l1.024 0.512c2.56 0.512 5.12 1.024 7.68 1.024s4.608 0 6.656-1.024c9.728-0.512 18.944-5.632 23.552-10.752l237.056-288.256c8.192-9.728 10.24-23.552 5.12-35.328-6.144-10.752-17.408-18.432-30.208-18.944z m-166.4 132.608c2.56-9.216 0-19.456-6.144-27.136-5.12-8.704-15.36-14.848-26.624-15.872H420.352l103.936-158.72v95.744c-0.512 9.216 2.56 17.408 8.704 24.064 5.632 6.144 14.336 9.728 24.064 9.728h66.048l-106.496 137.216 11.776-65.024z" p-id="5813"></path><path d="M512 64c-247.296 0-448 200.704-448 448s200.704 448 448 448 448-200.704 448-448-200.704-448-448-448z m0 820.224c-205.312 0-372.224-166.4-372.224-372.224S306.688 139.776 512 139.776s372.224 166.4 372.224 372.224-166.912 372.224-372.224 372.224z" p-id="5814"></path></svg>