<?xml version="1.0" encoding="utf-8"?>
<!-- Generator: Adobe Illustrator 21.0.0, SVG Export Plug-In . SVG Version: 6.00 Build 0)  -->
<svg version="1.1" id="图层_1" xmlns="http://www.w3.org/2000/svg" xmlns:xlink="http://www.w3.org/1999/xlink" x="0px" y="0px"
	 viewBox="0 0 308 308" style="enable-background:new 0 0 308 308;" xml:space="preserve">
<style type="text/css">
	.st0{fill:#0F3D9B;stroke:#4795FF;stroke-width:10;stroke-miterlimit:10;}
	.st1{fill:#FFFFFF;}
</style>
<path class="st0" d="M275,132.6c0-66.8-54.2-121-121-121S33,65.8,33,132.6c0,55.8,37.8,102.8,89.1,116.7l31.9,47l31.9-47
	C237.2,235.4,275,188.4,275,132.6z"/>
<path class="st1" d="M186.4,58c-6,0.1-10.9-4.9-11-11c0-6.1,4.9-11,11-11c6-0.1,10.9,4.8,11,11C197.3,53.1,192.4,58,186.4,58
	L186.4,58z M121.8,58c-6,0.1-10.9-4.8-11-11c0-6.1,4.9-11,11-11c6-0.1,10.9,4.8,11,11C132.7,53.1,127.8,58,121.8,58z M186.3,185.9
	c6,0.1,10.9-4.8,11-11c-0.1-6.2-5-11.1-11-11l0,0c-6-0.1-10.9,4.8-11,11C175.3,180.9,180.2,185.9,186.3,185.9z M121.7,185.9
	c6,0.1,10.9-4.8,11-11c-0.1-6.2-5-11.1-11-11l0,0c-6-0.1-10.9,4.8-11,11C110.7,180.9,115.6,185.9,121.7,185.9z M110.3,91.2v39.3
	c0,4.6,3.8,8.4,8.4,8.4h70.7c4.6,0,8.4-3.8,8.4-8.4V91.2c0-4.6-3.8-8.4-8.4-8.4h-70.8C114,82.8,110.3,86.6,110.3,91.2L110.3,91.2z
	 M95.1,77c0-5,3.7-9.1,8.3-9.1h101.2c4.6,0,8.3,4,8.3,9.1v119.8c0,5-3.7,9.1-8.3,9.1H103.3c-4.6,0-8.3-4-8.3-9l0,0L95.1,77
	C95,77,95.1,77,95.1,77z"/>
</svg>
